# xmcd CD database file
#
# Track frame offsets:
#	150
#	16302
#	28500
#	45080
#	54342
#	79852
#	91877
#	101662
#	118015
#	133502
#	145835
#
# Disc length: 2049 seconds
#
# Revision: 0
# Processed by: cddbd v1.5.2PL0 Copyright (c) Steve Scherf et al.
# Submitted via: CDex 1.70beta2
#
DISCID=8007ff0b
DTITLE=De Sio, Teresa  - Villanelle Popolaresche Del '500 (10-1978)
DYEAR=1978
DGENRE=Napoletana
TTITLE0=Moresca Prima
TTITLE1=Deh Quanno Te Veco
TTITLE2=Madonna Non E' Cchiù Lo tiempo Antico
TTITLE3=Vorria Sto Mondo Fatto A Voglia Mia
TTITLE4=Boccuccia De No Pierzeco Apreturo
TTITLE5=Che Giova O Donna
TTITLE6=Tutte Li Vecchie So Maliziose
TTITLE7=Sta Vita Quann'è Allegra
TTITLE8=No Mano Muzza
TTITLE9=Ho Visto Na Marotta Fa' Na Danza
TTITLE10=(Eugenio Bennato) Villanella Finale
EXTD=YEAR: 1978
EXTT0=
EXTT1=
EXTT2=
EXTT3=
EXTT4=
EXTT5=
EXTT6=
EXTT7=
EXTT8=
EXTT9=
EXTT10=
PLAYORDER=
